{"title":"Batman v Superman Dawn of Justice Ultimate Edition 720p-mp4","uid":15181610,"size":1593430744,"categoryP":"video","categoryS":"movies","magnet":"?xt=urn:btih:fd0d243ecb5237786387f1f054f01804a65cb30c&amp;dn=Batman+v+Superman+Dawn+of+Justice+Ultimate+Edition+720p-mp4&amp;tr=udp%3A%2F%2Ftracker.leechers-paradise.org%3A6969&amp;tr=udp%3A%2F%2Fzer0day.ch%3A1337&amp;tr=udp%3A%2F%2Fopen.demonii.com%3A1337&amp;tr=udp%3A%2F%2Ftracker.coppersurfer.tk%3A6969&amp;tr=udp%3A%2F%2Fexodus.desync.com%3A6969","seeders":1,"leechers":0,"uploader":"faren73","files":3,"time":1467459681,"description":"Batman v Superman Dawn of Justice Ultimate Edition 720p\r\n\r\n\r\n\r\nFormat                                   : MPEG-4\r\nFormat profile                           : Base Media / Version 2\r\nCodec ID                                 : mp42 (isom/iso2/avc1/mp41)\r\nFile size                                : 1.48 GiB\r\nDuration                                 : 3h 2mn\r\nOverall bit rate mode                    : Variable\r\nOverall bit rate                         : 1 161 Kbps\r\nMovie name         :Batman.v.Superman.Dawn.of.Justice.2016.Ultimate.Edition.720p\r\nEncoded date                             : UTC 2016-07-02 06:26:00\r\nTagged date                              : UTC 2016-07-02 06:26:00\r\nWriting application                      : HandBrake 0.10.5 2016021100\r\n\r\nVideo\r\nID                                       : 1\r\nFormat                                   : AVC\r\nFormat/Info                              : Advanced Video Codec\r\nFormat profile                           :   \r\nFormat settings, CABAC                   : Yes\r\nFormat settings, ReFrames                : 4 frames\r\nCodec ID                                 : avc1\r\nCodec ID/Info                            : Advanced Video Coding\r\nDuration                                 : 3h 2mn\r\nBit rate                                 : 994 Kbps\r\nWidth                                    : 720 pixels\r\nHeight                                   : 480 pixels\r\nDisplay aspect ratio                     : 3:2\r\nFrame rate mode                          : Variable\r\nFrame rate                               : 23.976 (23976/1000) fps\r\nMinimum frame rate                       : 23.810 fps\r\nMaximum frame rate                       : 24.390 fps\r\nColor space                              : YUV\r\nChroma subsampling                       : 4:2:0\r\nBit depth                                : 8 bits\r\nScan type                                : Progressive\r\nBits/(Pixel*Frame)                       : 0.120\r\nStream size                              : 1.27 GiB (86%)\r\nWriting library                          : x264 core 142 r2479 dd79a61\r\n\r\nEncoded date                             : UTC 2016-07-02 06:26:00\r\nTagged date                              : UTC 2016-07-02 06:26:00\r\n\r\n\r\nAudio\r\nID                                       : 2\r\nFormat                                   : AAC\r\nFormat/Info                              : Advanced Audio Codec\r\nFormat profile                           : LC\r\nCodec ID                                 : 40\r\nDuration                                 : 3h 2mn\r\nBit rate mode                            : Variable\r\nBit rate                                 : 160 Kbps\r\nChannel(s)                               : 2 channels\r\nChannel positions                        : Front: L R\r\nSampling rate                            : 48.0 KHz\r\nFrame rate                               : 46.875 fps (1024 spf)\r\nCompression mode                         : Lossy\r\nStream size                              : 209 MiB (14%)\r\nTitle                                    : Stereo / Stereo\r\nLanguage                                 : English\r\nDefault                                  : Yes\r\nAlternate group                          : 1\r\nEncoded date                             : UTC 2016-07-02 06:26:00\r\nTagged date                              : UTC 2016-07-02 06:26:00","torrent":{"xt":"urn:btih:fd0d243ecb5237786387f1f054f01804a65cb30c","amp;dn":"Batman+v+Superman+Dawn+of+Justice+Ultimate+Edition+720p-mp4","amp;tr":["udp%3A%2F%2Ftracker.leechers-paradise.org%3A6969","udp%3A%2F%2Fzer0day.ch%3A1337","udp%3A%2F%2Fopen.demonii.com%3A1337","udp%3A%2F%2Ftracker.coppersurfer.tk%3A6969","udp%3A%2F%2Fexodus.desync.com%3A6969"],"infoHash":"fd0d243ecb5237786387f1f054f01804a65cb30c","infoHashBuffer":{"type":"Buffer","data":[253,13,36,62,203,82,55,120,99,135,241,240,84,240,24,4,166,92,179,12]},"announce":[],"urlList":[]}}